# xmcd CD database file
#
# Track frame offsets:
#	150
#	22160
#	39155
#	58947
#	72042
#	86940
#	104515
#	119312
#	132247
#	152370
#	170440
#	184000
#	202822
#	218497
#	234317
#
# Disc length: 3301 seconds
#
# Revision: 0
# Processed by: cddbd v1.5.1PL0 Copyright (c) Steve Scherf et al.
# Submitted via: CDex 1.51
#
DISCID=c50ce30f
DTITLE=Gordon Bonham Blues Band - Low Down and Blue
DYEAR=1998
DGENRE=Blues
TTITLE0=Watch Out
TTITLE1=You're a Liar
TTITLE2=Low Down and Blue
TTITLE3=Leaving Texas
TTITLE4=Mother-In-Law Blues
TTITLE5=Ain't No Lie
TTITLE6=Special Recipe
TTITLE7=Get Back Home
TTITLE8=Tell Me Buddy
TTITLE9=65 Highway Blues
TTITLE10=Sleeping Beauty
TTITLE11=Coffee Song
TTITLE12=Phonograph Blues
TTITLE13=Baby Please Don't Go
TTITLE14=Silverbelly
EXTD=YEAR: 1998
EXTT0=
EXTT1=
EXTT2=
EXTT3=
EXTT4=
EXTT5=
EXTT6=
EXTT7=
EXTT8=
EXTT9=
EXTT10=
EXTT11=
EXTT12=
EXTT13=
EXTT14=
PLAYORDER=
